<svg xmlns="http://www.w3.org/2000/svg" xmlns:xlink="http://www.w3.org/1999/xlink" width="285.386" height="405.517" viewBox="0 0 285.386 405.517">
    <defs>
        <clipPath id="clip-path">
            <rect id="Rectangle_4" data-name="Rectangle 4" width="405.517" height="285.386" fill="#1f2128"/>
        </clipPath>
        <clipPath id="clip-path-4">
            <rect id="Rectangle_86" data-name="Rectangle 86" width="25.064" height="21.393" fill="#fff" stroke="#0be3a0" stroke-linecap="square" stroke-linejoin="bevel" stroke-width="1"/>
        </clipPath>
    </defs>
    <g id="Group_161" data-name="Group 161" transform="translate(-1737.036 -547.971)">
        <g id="Group_52" data-name="Group 52" transform="translate(2022.422 547.971) rotate(90)" style="isolation: isolate">
            <g id="Group_8" data-name="Group 8" clip-path="url(#clip-path)">
                <g id="Group_7" data-name="Group 7">
                    <g id="Group_6" data-name="Group 6" clip-path="url(#clip-path)">
                        <g id="Group_5" data-name="Group 5" style="mix-blend-mode: multiply;isolation: isolate">
                            <g id="Group_4" data-name="Group 4">
                                <g id="Group_3" data-name="Group 3" clip-path="url(#clip-path)">
                                    <path id="Path_16" data-name="Path 16" d="M357,132.6,405.516,84.09A284.5,284.5,0,0,0,0,85.771L202.955,285.386Z" transform="translate(-0.001)" fill="#1f2128"/>
                                </g>
                            </g>
                        </g>
                    </g>
                </g>
            </g>
        </g>
        <text id="Chat_with_us" data-name="Chat with us" transform="translate(1766 758)" fill="#fff" font-size="12" font-family="BeVietnam-SemiBold, Be Vietnam" font-weight="600"><tspan x="0" y="0">Chat with us</tspan></text>
        <g id="Group_160" data-name="Group 160" transform="translate(-192 -320)">
            <g id="Group_159" data-name="Group 159" transform="translate(1996.763 1030.637)">
                <g id="Group_155" data-name="Group 155" transform="translate(0 0)" clip-path="url(#clip-path-4)">
                    <path id="Path_124" data-name="Path 124" d="M20.2,21.393a1.323,1.323,0,0,1-.941-.4l-4.039-4.039H1.342A1.344,1.344,0,0,1,0,15.615V1.342A1.344,1.344,0,0,1,1.342,0h22.38a1.344,1.344,0,0,1,1.342,1.342V15.615a1.344,1.344,0,0,1-1.342,1.342H21.548v3.09a1.321,1.321,0,0,1-.828,1.24,1.366,1.366,0,0,1-.522.106M1.342.743a.6.6,0,0,0-.6.6V15.615a.6.6,0,0,0,.6.6H15.371a.37.37,0,0,1,.262.109l4.148,4.148a.6.6,0,0,0,1.024-.424V16.586a.371.371,0,0,1,.371-.371h2.545a.6.6,0,0,0,.6-.6V1.342a.6.6,0,0,0-.6-.6Z" transform="translate(0 0)" fill="#fff" stroke="#0be3a0" stroke-linecap="square" stroke-linejoin="bevel" stroke-width="1"/>
                    <path id="Path_125" data-name="Path 125" d="M25.757,15.585h-9.7a.371.371,0,1,1,0-.743h9.7a.371.371,0,1,1,0,.743" transform="translate(-10.654 -10.082)" fill="#fff" stroke="#0be3a0" stroke-linecap="square" stroke-linejoin="bevel" stroke-width="1"/>
                    <path id="Path_126" data-name="Path 126" d="M30.318,26.251H16.055a.371.371,0,0,1,0-.743H30.318a.371.371,0,0,1,0,.743" transform="translate(-10.655 -17.328)" fill="#fff" stroke="#0be3a0" stroke-linecap="square" stroke-linejoin="bevel" stroke-width="1"/>
                    <path id="Path_127" data-name="Path 127" d="M30.318,36.918H16.055a.371.371,0,0,1,0-.743H30.318a.371.371,0,0,1,0,.743" transform="translate(-10.655 -24.575)" fill="#fff" stroke="#0be3a0" stroke-linecap="square" stroke-linejoin="bevel" stroke-width="1"/>
                </g>
            </g>
        </g>
    </g>
</svg>
